inDegrees=no
num_controls=7
num_derivatives=13
num_iterations=32
num_multipliers=7
num_parameters=0
num_slacks=7
num_states=26
objective=0.617349
objective_accelerations=0.111743
objective_balance=0.000929
objective_effort=0.022228
objective_height=0.473241
objective_ligament=0.009208
solver_duration=524.952852
status=Solve_Succeeded
success=true
DataType=double
version=3
OpenSimVersion=4.5
endheader
time	/jointset/ground_pelvis/pelvis_tilt/value	/jointset/ground_pelvis/pelvis_tx/value	/jointset/ground_pelvis/pelvis_ty/value	/jointset/hip_l/hip_flexion_l/value	/jointset/hip_l/hip_adduction_l/value	/jointset/hip_l/hip_rotation_l/value	/jointset/back/lumbar_extension/value	/jointset/patellofemoral_l/patellar_flexion_l/value	/jointset/knee_l/knee_flexion_l/value	/jointset/knee_l/knee_adduction_l/value	/jointset/knee_l/knee_rotation_l/value	/jointset/ankle_l/ankle_angle_l/value	/jointset/subtalar_l/subtalar_angle_l/value	/jointset/ground_pelvis/pelvis_tilt/speed	/jointset/ground_pelvis/pelvis_tx/speed	/jointset/ground_pelvis/pelvis_ty/speed	/jointset/hip_l/hip_flexion_l/speed	/jointset/hip_l/hip_adduction_l/speed	/jointset/hip_l/hip_rotation_l/speed	/jointset/back/lumbar_extension/speed	/jointset/patellofemoral_l/patellar_flexion_l/speed	/jointset/knee_l/knee_flexion_l/speed	/jointset/knee_l/knee_adduction_l/speed	/jointset/knee_l/knee_rotation_l/speed	/jointset/ankle_l/ankle_angle_l/speed	/jointset/subtalar_l/subtalar_angle_l/speed	/forceset/tau_hip_flexion_l	/forceset/tau_hip_adduction_l	/forceset/tau_hip_rotation_l	/forceset/tau_knee_flexion_l	/forceset/tau_ankle_angle_l	/forceset/tau_subtalar_angle_l	/forceset/tau_lumbar_extension	lambda_cid13_p0	lambda_cid13_p1	lambda_cid13_p2	lambda_cid13_p3	lambda_cid13_p4	lambda_cid13_p5	lambda_cid14_p0	/jointset/ground_pelvis/pelvis_tilt/accel	/jointset/ground_pelvis/pelvis_tx/accel	/jointset/ground_pelvis/pelvis_ty/accel	/jointset/hip_l/hip_flexion_l/accel	/jointset/hip_l/hip_adduction_l/accel	/jointset/hip_l/hip_rotation_l/accel	/jointset/back/lumbar_extension/accel	/jointset/patellofemoral_l/patellar_flexion_l/accel	/jointset/knee_l/knee_flexion_l/accel	/jointset/knee_l/knee_adduction_l/accel	/jointset/knee_l/knee_rotation_l/accel	/jointset/ankle_l/ankle_angle_l/accel	/jointset/subtalar_l/subtalar_angle_l/accel	gamma_cid13_p0	gamma_cid13_p1	gamma_cid13_p2	gamma_cid13_p3	gamma_cid13_p4	gamma_cid13_p5	gamma_cid14_p0
1	-0.5344644807858848	-0.04327139614335608	0.4549972517452003	2.181658532809942	-0.30992006464595	0.1996832632388854	-0.4362936270653903	1.825589878535651	1.825589878535683	0.1504772167904901	-0.1744340418426766	0.3788966909769055	0.2713939561612954	-0.1861987244375616	-0.002717853565968746	0.05105318759836698	-0.001251666567823998	-0.01377605183717323	-0.04912615567936198	-0.0006327128841384181	-0.1864676982243873	-0.1864676982243836	-0.03680526128903329	0.0003623702218985512	-0.01577223338871604	-0.02996258233112678	-0.2796616621861777	0.04813527597418042	-0.04117091299807941	-0.3233342482777595	0.0402427206014676	-0.0272917605362473	0.2315679059333841	-27.37555147182272	30.33999603446372	-20.75978993803173	3.771952953292214	-569.9582673015939	-28.9759852574479	-0.02134754952331177	0.6670050179748507	0.02622478788223542	2.760170017093936	-8.278789458131881	-0.7284834073914676	-2.058355970680945	0.01488913042865252	-6.711827838846935	-6.711827838846943	-1.153370559081546	-0.03839708282788672	0.3503194884238742	-0.8612795442866525	5.68637629736238e-09	-2.198876723991391e-07	-2.984395810815908e-07	-5.007787754077481e-08	-4.735872949002838e-08	-6.324155330503567e-07	5.061632154699714e-08
1.01	-0.5362934103413084	-0.04329715794976872	0.4556456299819466	2.181232638181686	-0.3100929441098672	0.1990937567329222	-0.4362983718281168	1.823389983215509	1.823389983215522	0.1500481347925996	-0.1744305559817823	0.3787563869627584	0.2710531261959667	-0.1795240563458746	-0.002413233378926098	0.07861369118375729	-0.083934908409331	-0.02078361674196148	-0.06875148881153384	-0.0003272581010317467	-0.2534932906124804	-0.2534932906124762	-0.04901163326087976	0.0003291733600163483	-0.01232302738068538	-0.03819999309611769	-0.2804212025736049	0.04808685165293779	-0.04099163646655292	-0.3223709598403363	0.03963221125270306	-0.02715575096652046	0.2320223209811265	-27.51026687433658	30.23837533284073	-20.66804192064364	3.599701313072083	-569.8409712286556	-28.94508420223574	-0.02138591372542334	0.6771666552796087	0.03575735886518279	2.752661838469427	-8.264240429512178	-0.6844043471369892	-1.911067928718762	0.03672088722864542	-6.695226887400991	-6.695226887400858	-1.254326436380093	0.01326939153585049	0.337044311822288	-0.8043659901217578	7.661769904431566e-09	-2.807585593532213e-07	-4.048313970151846e-07	-7.190823420385081e-08	-6.683261556270872e-08	-8.110301829017382e-07	6.598037133189412e-08
1.02	-0.5380536994257195	-0.04331923820936099	0.4565693475163874	2.179979681358546	-0.310335401485854	0.1983087077067756	-0.4363003925960223	1.820520371581765	1.820520371581756	0.149496977890795	-0.1744275920136019	0.3786495396396518	0.2706300432934853	-0.1724706302335822	-0.001981544201891808	0.1061210471378429	-0.1666641055449067	-0.02769163425132938	-0.08823465971304448	-8.79139187829959e-05	-0.3204109609449992	-0.320410960944994	-0.06122024203847388	0.000257991674306367	-0.00908089517946779	-0.04641316976176639	-0.2811807429609067	0.04803842733170785	-0.04081235993535833	-0.3214076714029165	0.03902170190391661	-0.02701974139678111	0.2324767360289876	-27.64237604507534	30.13759490246462	-20.57790840302741	3.400135082707754	-569.7537366462412	-28.87548951120134	-0.02143421729111055	0.7427566220961548	0.05163858588051198	2.749540490833037	-8.287980516945916	-0.7085739283073197	-2.029923524548704	0.001667010257359853	-6.690243427732116	-6.690243427732072	-1.153817920231049	-0.04599404759333357	0.3089047270611643	-0.856432724418169	1.0636303041415e-08	-3.405261731007308e-07	-5.065242082955246e-07	-9.500501308618199e-08	-8.40217005667571e-08	-9.830767356501176e-07	8.058427294875084e-08
1.03	-0.5397413674894398	-0.04333628265597448	0.4577677780228641	2.17789942476609	-0.3106463181502038	0.1973293318650322	-0.4363002944578485	1.816982237021836	1.81698223702183	0.1488240753066486	-0.1744254820144003	0.3785737882888861	0.2701249586453769	-0.1649800354234281	-0.001397795079490189	0.1335472059995342	-0.2493760119182665	-0.03446156091026335	-0.1076195575462879	0.0001009152831153288	-0.38718695423155	-0.3871869542315433	-0.07334228901050283	0.0001637090868027491	-0.006130937131532072	-0.05459589795003152	-0.2818528966373059	0.04812557723806886	-0.04054811560254884	-0.3203245040833059	0.0383684544389973	-0.02682214735766125	0.2329029592586488	-27.76393610518976	29.99813690748242	-20.47009037471284	3.176007059003605	-569.4778135510146	-28.82793873566609	-0.0214957663653804	0.764651140635541	0.06615181846699623	2.73645601876974	-8.261118674338967	-0.6565970071899799	-1.889621663149542	0.02649693540394771	-6.666946882538951	-6.666946882538723	-1.238673683554604	0.008653278769352762	0.2787959438653255	-0.7978766768615587	1.362103147972409e-08	-4.002825289583774e-07	-6.081690705487905e-07	-1.181147146442199e-07	-1.011874712741868e-07	-1.155056266999487e-06	9.518041795164796e-08
1.04	-0.5413516415590346	-0.04334660786275451	0.4592399306049431	2.174992384514552	-0.3110240130756427	0.1961567372948491	-0.4362985068156109	1.812777208608358	1.812777208608352	0.1480304971330431	-0.1744243551124253	0.3785256874386373	0.2695383099532202	-0.156991831406811	-0.0006376962351994056	0.1608654622588843	-0.332020837363931	-0.04104728646933675	-0.1268784053970281	0.0002499868949886383	-0.4537897316550049	-0.4537897316549973	-0.0853553598971562	6.13722232299947e-05	-0.003550795075373459	-0.06272597857153281	-0.2825250503135872	0.04821272714442861	-0.04028387127007187	-0.3192413367637023	0.03771520697405377	-0.02662455331855173	0.233329182488418	-27.88329006578934	29.85933230554048	-20.36356353428775	2.925852568239848	-569.2364819304205	-28.74485834424637	-0.02156578049292371	0.8422784633889553	0.08690853025829229	2.727959970364868	-8.274564331407163	-0.671733708335113	-2.004713528048091	-0.006284507747397243	-6.65560025511301	-6.655600255113099	-1.132022703155881	-0.04760490280703247	0.2349415287056517	-0.8459032110653432	1.599765349942876e-08	-4.491117637330855e-07	-6.877156235805193e-07	-1.381716093084054e-07	-1.148519661238247e-07	-1.277019472910653e-06	1.049155863609292e-07
1.05	-0.5428793542983594	-0.04334838457708582	0.4609846130503514	2.171259503345135	-0.3114665432694565	0.1947921568117766	-0.4362954695570961	1.807907157990444	1.807907157990438	0.1471174962035851	-0.1744243044147299	0.3785012288162797	0.2688705865232147	-0.1484493403838214	0.0003181735504737228	0.1880423341531777	-0.4145206563607314	-0.04741489624644348	-0.1459955762013619	0.0003463937903988103	-0.520178155141515	-0.52017815514151	-0.0972315959654302	-4.890810923148995e-05	-0.001430743220532312	-0.07080741027711102	-0.2830253329050317	0.04845280554459058	-0.03993762958969865	-0.3180224697559049	0.03703470076708566	-0.02637282443911204	0.2336533323023527	-27.98478282564972	29.68491178343572	-20.24110429002139	2.666080788229815	-568.7305374916122	-28.66746918819266	-0.0216482139156916	0.8754376725442496	0.1052674015481811	2.708221080348458	-8.232484427140847	-0.6125886994526653	-1.858892174220991	0.01594263610321939	-6.624150874305056	-6.624150874305333	-1.213409538050794	0.007413397665385122	0.1870512063247579	-0.7873971004205735	1.835527219355205e-08	-4.975995259739519e-07	-7.665716044490754e-07	-1.58133103757158e-07	-1.284070461029066e-07	-1.397419668651875e-06	1.1449884925166e-07
1.06	-0.5443186014773059	-0.04333953435379501	0.463000198270979	2.166702665237108	-0.3119714123784509	0.1932376699571242	-0.4362918003600315	1.802374485641888	1.802374485641876	0.1460861358173776	-0.1744253259211027	0.3784952735509559	0.2681224219861308	-0.1392987193291798	0.001487691289222785	0.2150460173032793	-0.4968122250904921	-0.05351506950571693	-0.1648596797094956	0.0003763746025859859	-0.5863140777834375	-0.5863140777834346	-0.1090272512092032	-0.0001530685964482226	0.0001498763323650808	-0.07881419998735179	-0.2835256154963123	0.04869288394476114	-0.03959138790970597	-0.3168036027481212	0.03635419456008471	-0.02612109555967204	0.2339774821164475	-28.08465030216355	29.51084351473984	-20.11942805292106	2.382467804484408	-568.2658401120005	-28.5593094859174	-0.02173708780143348	0.9639044697195508	0.1296381208734254	2.693322221526575	-8.232914277999511	-0.6182464047683526	-1.954100068808097	-0.01956972439174698	-6.605100086195604	-6.605100086195562	-1.11590653825561	-0.04638093375793388	0.1270550683168101	-0.8309748119977871	1.953247148807347e-08	-5.406904661131114e-07	-8.343282572439786e-07	-1.724983128217944e-07	-1.391014362575771e-07	-1.493773594041526e-06	1.221371663712557e-07
1.07	-0.5456630010981953	-0.04331784850827899	0.4652848690271612	2.161324031207303	-0.3125359221003925	0.191495611372454	-0.4362883024391264	1.796181825751466	1.79618182575145	0.1449374827050328	-0.174427443016361	0.378502181075075	0.267294455472893	-0.1294511169414754	0.002892042469960368	0.2418514791448796	-0.5788762372938037	-0.05933522764598512	-0.1835044140645659	0.0002984161987281936	-0.6521657873109971	-0.6521657873110021	-0.1206849186053388	-0.0002695386194335278	0.001120546708045086	-0.08676827783350213	-0.2838987268619649	0.04908084922110547	-0.03916989222327446	-0.3154414998803292	0.03562772973713121	-0.02582477642923669	0.2342342506342159	-28.17646442591816	29.30684227996036	-19.98252037857506	2.092027130264525	-567.5793446482913	-28.45144295725179	-0.02183544967193532	1.014697180689645	0.152180802815012	2.668629869583763	-8.18739915442238	-0.5560256992170627	-1.812506749752457	-0.005627904731492182	-6.567415478803754	-6.567415478804881	-1.18789778652835	0.005612915567627232	0.06539415714604169	-0.7757990988804949	2.064688251665862e-08	-5.834943412468608e-07	-9.014945202477302e-07	-1.865658471319564e-07	-1.496436620598852e-07	-1.588848462497581e-06	1.29672028928557e-07
1.08	-0.5469050228837407	-0.04328084971372724	0.4678364887425794	2.155125906162884	-0.3131570584398494	0.1895685361180357	-0.436286327903504	1.789332206947216	1.789332206947199	0.1436728127293535	-0.1744307462213968	0.3785154595299383	0.266387313215603	-0.1188231522579832	0.004550281096373558	0.268435809151064	-0.6607104280141174	-0.06484039300868999	-0.2018630136554773	7.169754097741853e-05	-0.7177058605492732	-0.7177058605492859	-0.1322306238509037	-0.0003902905569609889	0.001424062481822271	-0.09464934879792872	-0.2842718382275499	0.04946881449744053	-0.03874839653710431	-0.3140793970125433	0.03490126491416107	-0.02552845729882052	0.2344910191520375	-28.26737919104845	29.10276754552294	-19.84569631140838	1.780541284043317	-566.9427982713444	-28.31917292172411	-0.02193779025908828	1.119976928877305	0.1804156100084931	2.649095854443431	-8.186949981400199	-0.5552478492555761	-1.896873115976355	-0.04932177517000391	-6.542772828338986	-6.542772828338955	-1.093514108141378	-0.04723731666619707	-0.006375852063841031	-0.8163734356529478	2.181664146923748e-08	-6.140015349846383e-07	-9.445478927432732e-07	-1.972222850988008e-07	-1.551810458083108e-07	-1.638786528834365e-06	1.330713400691112e-07
